<?xml version="1.0" encoding="UTF-8" standalone="no"?>
<!-- Svg Vector Icons : http://www.onlinewebfonts.com/icon -->

<svg
   version="1.1"
   x="0px"
   y="0px"
   viewBox="0 0 256 256"
   enable-background="new 0 0 256 256"
   xml:space="preserve"
   id="svg22"
   sodipodi:docname="library-favicon.svg"
   inkscape:version="1.3.1 (9b9bdc1480, 2023-11-25, custom)"
   xmlns:inkscape="http://www.inkscape.org/namespaces/inkscape"
   xmlns:sodipodi="http://sodipodi.sourceforge.net/DTD/sodipodi-0.dtd"
   xmlns="http://www.w3.org/2000/svg"
   xmlns:svg="http://www.w3.org/2000/svg"><defs
   id="defs22" /><sodipodi:namedview
   id="namedview22"
   pagecolor="#ffffff"
   bordercolor="#000000"
   borderopacity="0.25"
   inkscape:showpageshadow="2"
   inkscape:pageopacity="0.0"
   inkscape:pagecheckerboard="0"
   inkscape:deskcolor="#d1d1d1"
   inkscape:zoom="1.5701135"
   inkscape:cx="11.145691"
   inkscape:cy="121.9657"
   inkscape:window-width="1854"
   inkscape:window-height="1003"
   inkscape:window-x="0"
   inkscape:window-y="0"
   inkscape:window-maximized="1"
   inkscape:current-layer="g20" />
<metadata
   id="metadata1"> Svg Vector Icons : http://www.onlinewebfonts.com/icon </metadata>
<g
   id="g22"><g
     id="g21"><g
       id="g20"><path
         fill="#000000"
         d="M73.7,12c-3.2,1.5-5.2,5-5.2,9.6v3h18h18v-3.5c0-4.3-1.3-7-4.3-8.7c-1.9-1-2.5-1.1-13.4-1.1C78.2,11.4,74.8,11.6,73.7,12z"
         id="path1"
         style="stroke-width:2.5;stroke-dasharray:none;stroke:#000000;fill:#2ca089" /><path
         fill="#000000"
         d="M118,26.8c-1.8,0.8-3.9,3.1-4.6,4.9c-0.3,0.8-0.5,5.3-0.5,10.7v9.3h19h19l-0.2-9.5c-0.1-10.8-0.6-12.3-4-14.5l-2-1.3l-12.6-0.1C122.3,26.2,119.2,26.3,118,26.8z"
         id="path2"
         style="stroke-width:2.5;stroke-dasharray:none;stroke:#000000;fill:#7c6f91" /><path
         fill="#000000"
         d="M15.2,29c-1.1,0.5-2.4,1.4-2.9,1.9c-1.1,1.2-2.3,4.3-2.3,6.1v1.4h26.1h26.1l-0.3-2.1c-0.5-3.2-2.4-6-4.8-7.2c-2.1-1-2.9-1-21.1-1C18.8,28.1,17,28.2,15.2,29z"
         id="path3"
         style="stroke-width:2.5;stroke-dasharray:none;stroke:#000000;fill:#d35f5f" /><path
         fill="#000000"
         d="M68.6,33.7v3.7h18h18v-3.7v-3.7h-18h-18V33.7z"
         id="path4"
         style="stroke-width:2.5;stroke-dasharray:none;stroke:#000000;fill:#ffe680" /><path
         fill="#000000"
         d="M68.6,128v84.7h18h18V128V43.3h-18h-18V128z"
         id="path5"
         style="stroke-width:2.5;stroke-dasharray:none;stroke:#000000;fill:#2ca089" /><path
         fill="#000000"
         d="M10,47.8v3.4h26.1h26.1v-3.4v-3.4H36.1H10V47.8z"
         id="path6"
         style="stroke-width:2.5;stroke-dasharray:none;stroke:#000000;fill:#ffe680" /><path
         fill="#000000"
         d="M10,136.4v79.2h26.1h26.1v-79.2V57.1H36.1H10V136.4z"
         id="path7"
         style="fill:#d35f5f;stroke-width:2.5;stroke-dasharray:none;stroke:#000000" /><path
         fill="#000000"
         d="M112.9,60.8v3.7h18.9h19l-0.1-3.6l-0.1-3.5l-18.8-0.1l-18.8-0.1L112.9,60.8L112.9,60.8z"
         id="path8"
         style="stroke-width:2.5;stroke-dasharray:none;stroke:#000000;fill:#ffe680" /><path
         fill="#000000"
         d="M179.8,70.1c-10.1,2.5-19.1,4.9-20,5.4c-2.3,1.2-3.7,3.5-4,6.5c-0.2,2.9,2.2,14,3.1,14c0.9,0,51.7-12.4,52-12.7c0.5-0.5-2.8-12.7-3.8-14.2c-1.3-1.8-4.9-3.6-7.1-3.5C199,65.5,189.9,67.6,179.8,70.1z"
         id="path9"
         style="stroke-width:2.5;stroke-dasharray:none;stroke:#000000;fill:#d38d5f" /><path
         fill="#000000"
         d="M112.9,135.4v65h18.9h18.9v-65v-65h-18.9h-18.9V135.4z"
         id="path10"
         style="stroke-width:2.5;stroke-dasharray:none;stroke:#000000;fill:#7c6f91" /><path
         fill="#000000"
         d="M199.5,92.3c-6.9,1.7-18.7,4.6-26.1,6.4l-13.6,3.3l0.7,3c0.4,1.7,0.9,3.2,1,3.4c0.3,0.3,52-12.1,52.5-12.6c0.3-0.3-1.3-6.7-1.7-6.7C212.2,89.2,206.4,90.6,199.5,92.3z"
         id="path11"
         style="stroke-width:2.5;stroke-dasharray:none;stroke:#000000;fill:#ffe680" /><path
         fill="#000000"
         d="M188.7,108.3c-13.9,3.4-25.4,6.4-25.5,6.7c-0.2,0.6,22.2,92.7,22.7,93.1c0.5,0.5,52.5-12.3,52.5-12.9c0-0.5-20.9-86.6-22.2-91.4c-0.3-1.2-0.7-1.8-1.3-1.8C214.4,102,202.6,104.8,188.7,108.3z"
         id="path12"
         style="stroke-width:2.5;stroke-dasharray:none;stroke:#000000;fill:#d38d5f" /><path
         fill="#000000"
         d="M213.3,207.8c-14.2,3.5-25.8,6.4-25.9,6.4c-0.1,0.1,1.3,6.4,1.5,6.6c0.1,0.1,49.2-11.7,52-12.5c0.7-0.2,0.7-0.5,0-3.5c-0.4-1.8-1-3.3-1.3-3.4C239.3,201.5,227.5,204.3,213.3,207.8z"
         id="path13"
         style="stroke-width:2.5;stroke-dasharray:none;stroke:#000000;fill:#ffe680" /><path
         fill="#000000"
         d="M112.9,209.9v3.7h18.9h18.9v-3.7v-3.7h-18.9h-18.9V209.9z"
         id="path14"
         style="stroke-width:2.5;stroke-dasharray:none;stroke:#000000;fill:#ffe680" /><path
         fill="#000000"
         d="M217.2,220.2c-13.4,3.3-25,6.2-25.6,6.3l-1.3,0.3l1.6,6.5c0.9,3.5,2.1,7,2.6,7.7c1.3,1.8,4.5,3.5,6.6,3.5c1.8,0,37.2-8.4,39.9-9.4c1.9-0.7,4.1-3.5,4.8-5.9c0.5-1.8,0.3-2.9-1-8.6c-1.2-5.3-1.7-6.6-2.4-6.5C242,214.2,230.6,216.9,217.2,220.2z"
         id="path15"
         style="stroke-width:2.5;stroke-dasharray:none;stroke:#000000;fill:#d38d5f" /><path
         fill="#000000"
         d="M68.6,222.2v3.7h18h18v-3.7v-3.7h-18h-18V222.2z"
         id="path16"
         style="stroke-width:2.5;stroke-dasharray:none;stroke:#000000;fill:#ffe680" /><path
         fill="#000000"
         d="M112.9,228.7c0,9.1,0,9.8,1.1,11.6c0.6,1.1,2,2.5,3.2,3.1c2,1.2,2.2,1.2,14.4,1.2c14.2,0,15.1-0.2,17.6-4l1.4-2v-9.6v-9.6l-18.8-0.1l-18.8-0.1V228.7L112.9,228.7z"
         id="path17"
         style="stroke-width:2.5;stroke-dasharray:none;stroke:#000000;fill:#7c6f91" /><path
         fill="#000000"
         d="M10,225.2v3.7l26-0.1l25.9-0.1l0.1-3.6l0.1-3.5H36.1H10V225.2z"
         id="path18"
         style="stroke-width:2.5;stroke-dasharray:none;stroke:#000000;fill:#ffe680" /><path
         fill="#000000"
         d="M68.6,234.4c0,4.8,2.1,8.4,5.6,9.7c0.8,0.3,5.9,0.5,12.7,0.5c11.2,0,11.4,0,13.5-1.2c2.8-1.7,4.1-4.4,4.1-8.8v-3.3h-18h-18V234.4z"
         id="path19"
         style="stroke-width:2.5;stroke-dasharray:none;stroke:#000000;fill:#2ca089" /><path
         fill="#000000"
         d="M10,235.9c0,2.4,1.6,5.5,3.7,7.1l1.8,1.4l19.8,0.1c19,0.1,19.9,0.1,21.8-0.8c2.3-1.2,3.6-3,4.4-5.7c1.1-4.1,3.7-3.7-25.5-3.7H10V235.9z"
         id="path20"
         style="stroke-width:2.5;stroke-dasharray:none;stroke:#000000;fill:#d35f5f" /></g></g></g>
</svg>
